name C:\Users\u0101727\Documents\MyRepositories\upper-imu-dc\Results\main_tracking\Case_53\kinematics.mot
datacolumns 10
datarows 56
range 1.37000000 1.92000000
endheader 
time	clav_prot	clav_elev	scapula_abduction	scapula_elevation	scapula_upward_rot	scapula_winging	plane_elv	shoulder_elv	axial_rot	
          1.37000000	        -23.87943377	         14.63660822	        -11.43531366	          6.04451711	         29.47954781	         -1.09418953	        -10.93888749	          0.80725829	         47.09755208	
          1.38000000	        -23.83379979	         14.68573185	        -11.38299412	          6.08426106	         29.47797330	         -1.08167141	        -10.68964801	          0.81241276	         46.78168525	
          1.39000000	        -23.78794205	         14.72423248	        -11.32761890	          6.11726296	         29.47154107	         -1.06907903	        -10.45355320	          0.81977188	         46.48389260	
          1.40000000	        -23.74316765	         14.75362168	        -11.27163637	          6.14430491	         29.46133362	         -1.05671891	        -10.22466871	          0.82861955	         46.20060798	
          1.41000000	        -23.70063980	         14.77535477	        -11.21730398	          6.16616455	         29.44831650	         -1.04483270	         -9.99715471	          0.83835915	         45.92789129	
          1.42000000	        -23.66134542	         14.79077748	        -11.16660835	          6.18358264	         29.43331666	         -1.03359905	         -9.76567640	          0.84852129	         45.66174432	
          1.43000000	        -23.62606029	         14.80107573	        -11.12118155	          6.19723251	         29.41700276	         -1.02313578	         -9.52585557	          0.85876051	         45.39850937	
          1.44000000	        -23.59531831	         14.80723435	        -11.08222715	          6.20769467	         29.39987068	         -1.01350300	         -9.27469561	          0.86884394	         45.13527722	
          1.45000000	        -23.56939139	         14.81000954	        -11.05046887	          6.21543899	         29.38223703	         -1.00470720	         -9.01091608	          0.87863509	         44.87023629	
          1.46000000	        -23.54828529	         14.80991845	        -11.02613179	          6.22081631	         29.36424251	         -0.99670683	         -8.73514186	          0.88807605	         44.60290160	
          1.47000000	        -23.53175438	         14.80724754	        -11.00896253	          6.22406026	         29.34586612	         -0.98941922	         -8.44990433	          0.89717209	         44.33417304	
          1.48000000	        -23.51933660	         14.80207987	        -10.99829040	          6.22529944	         29.32694975	         -0.98272901	         -8.15943425	          0.90598198	         44.06619629	
          1.49000000	        -23.51040678	         14.79433911	        -10.99312600	          6.22457872	         29.30723226	         -0.97649784	         -7.86926090	          0.91461463	         43.80204159	
          1.50000000	        -23.50424422	         14.78384620	        -10.99228843	          6.22188734	         29.28639061	         -0.97057521	         -7.58566737	          0.92322991	         43.54525734	
          1.51000000	        -23.50010745	         14.77038256	        -10.99454696	          6.21719051	         29.26408479	         -0.96480987	         -7.31507530	          0.93203969	         43.29937906	
          1.52000000	        -23.49730719	         14.75375247	        -10.99875995	          6.21046085	         29.24000147	         -0.95906086	         -7.06344130	          0.94130588	         43.06747616	
          1.53000000	        -23.49526738	         14.73383591	        -11.00399143	          6.20170516	         29.21389043	         -0.95320664	         -6.83574798	          0.95133311	         42.85181194	
          1.54000000	        -23.49356433	         14.71062350	        -11.00958644	          6.19098237	         29.18558794	         -0.94715090	         -6.63566552	          0.96245530	         42.65367789	
          1.55000000	        -23.49193768	         14.68422792	        -11.01519285	          6.17840971	         29.15502340	         -0.94082409	         -6.46543012	          0.97501666	         42.47342852	
          1.56000000	        -23.49027404	         14.65487212	        -11.02073102	          6.16415717	         29.12221013	         -0.93418096	         -6.32593326	          0.98934949	         42.31068868	
          1.57000000	        -23.48857113	         14.62286098	        -11.02632561	          6.14843346	         29.08722537	         -0.92719520	         -6.21696241	          1.00575265	         42.16465551	
          1.58000000	        -23.48689393	         14.58854600	        -11.03222130	          6.13146815	         29.05018678	         -0.91985331	         -6.13750264	          1.02447489	         42.03439292	
          1.59000000	        -23.48533375	         14.55229259	        -11.03870322	          6.11349488	         29.01123179	         -0.91214923	         -6.08600650	          1.04570707	         41.91902404	
          1.60000000	        -23.48397758	         14.51445648	        -11.04603656	          6.09473909	         28.97050396	         -0.90408073	         -6.06056382	          1.06958530	         41.81776103	
          1.61000000	        -23.48289039	         14.47537178	        -11.05443133	          6.07541171	         28.92814693	         -0.89564777	         -6.05894792	          1.09620460	         41.72976637	
          1.62000000	        -23.48210876	         14.43534876	        -11.06402925	          6.05570797	         28.88430450	         -0.88685224	         -6.07856742	          1.12563867	         41.65390241	
          1.63000000	        -23.48164130	         14.39467747	        -11.07490436	          6.03580930	         28.83912366	         -0.87769859	         -6.11639042	          1.15795898	         41.58847106	
          1.64000000	        -23.48147132	         14.35363267	        -11.08706822	          6.01588599	         28.79275825	         -0.86819451	         -6.16891031	          1.19324674	         41.53104282	
          1.65000000	        -23.48155908	         14.31247816	        -11.10047493	          5.99609969	         28.74537138	         -0.85835134	         -6.23219181	          1.23159427	         41.47842635	
          1.66000000	        -23.48184267	         14.27146985	        -11.11502457	          5.97660549	         28.69713575	         -0.84818380	         -6.30200343	          1.27309661	         41.42677947	
          1.67000000	        -23.48223682	         14.23085710	        -11.13056384	          5.95755350	         28.64823139	         -0.83770886	         -6.37402930	          1.31783521	         41.37184330	
          1.68000000	        -23.48262890	         14.19088124	        -11.14688166	          5.93908911	         28.59884095	         -0.82694408	         -6.44414767	          1.36585643	         41.30927471	
          1.69000000	        -23.48287261	         14.15177076	        -11.16369994	          5.92135122	         28.54914346	         -0.81590555	         -6.50875039	          1.41714737	         41.23503900	
          1.70000000	        -23.48278187	         14.11373437	        -11.18066325	          5.90446895	         28.49930799	         -0.80460622	         -6.56506360	          1.47161142	         41.14581531	
          1.71000000	        -23.48212854	         14.07695425	        -11.19733400	          5.88855775	         28.44948948	         -0.79305513	         -6.61142290	          1.52904566	         41.03936502	
          1.72000000	        -23.48064685	         14.04158188	        -11.21319908	          5.87371623	         28.39982780	         -0.78125803	         -6.64745854	          1.58912286	         40.91481411	
          1.73000000	        -23.47804518	         14.00773684	        -11.22768914	          5.86002401	         28.35044989	         -0.76921917	         -6.67415916	          1.65138146	         40.77280988	
          1.74000000	        -23.47402237	         13.97550671	        -11.24020617	          5.84753981	         28.30147281	         -0.75694370	         -6.69380426	          1.71522695	         40.61553294	
          1.75000000	        -23.46828474	         13.94494533	        -11.25015222	          5.83629851	         28.25300589	         -0.74444005	         -6.70977794	          1.77994642	         40.44656985	
          1.76000000	        -23.46056072	         13.91606762	        -11.25695331	          5.82630644	         28.20515032	         -0.73172177	         -6.72629413	          1.84473566	         40.27067351	
          1.77000000	        -23.45061160	         13.88884154	        -11.26007641	          5.81753518	         28.15799677	         -0.71880878	         -6.74807122	          1.90873545	         40.09345094	
          1.78000000	        -23.43823946	         13.86317964	        -11.25904120	          5.80991551	         28.11162220	         -0.70572806	         -6.77998915	          1.97107297	         39.92101167	
          1.79000000	        -23.42329375	         13.83893367	        -11.25343109	          5.80333352	         28.06608728	         -0.69251415	         -6.82674924	          2.03090471	         39.75959581	
          1.80000000	        -23.40567800	         13.81589519	        -11.24290684	          5.79763089	         28.02143528	         -0.67920915	         -6.89255064	          2.08745800	         39.61519418	
          1.81000000	        -23.38535735	         13.79380314	        -11.22722408	          5.79260969	         27.97769306	         -0.66586253	         -6.98079812	          2.14006877	         39.49317790	
          1.82000000	        -23.36236705	         13.77235819	        -11.20625480	          5.78804162	         27.93487493	         -0.65253106	         -7.09385750	          2.18821283	         39.39795969	
          1.83000000	        -23.33682274	         13.75124258	        -11.18001269	          5.78368038	         27.89298972	         -0.63927892	         -7.23287390	          2.23152822	         39.33271134	
          1.84000000	        -23.30893283	         13.73014354	        -11.14868193	          5.77927589	         27.85205116	         -0.62617858	         -7.39766778	          2.26982583	         39.29916502	
          1.85000000	        -23.27901156	         13.70877625	        -11.11264542	          5.77458761	         27.81209043	         -0.61331227	         -7.58672354	          2.30308685	         39.29752683	
          1.86000000	        -23.24748843	         13.68690106	        -11.07250328	          5.76939405	         27.77316790	         -0.60077351	         -7.79728051	          2.33144771	         39.32652184	
          1.87000000	        -23.21490807	         13.66432889	        -11.02907095	          5.76349546	         27.73537971	         -0.58866760	         -8.02552287	          2.35517622	         39.38356830	
          1.88000000	        -23.18191666	         13.64091232	        -10.98334973	          5.75670836	         27.69885676	         -0.57711058	         -8.26685200	          2.37464318	         39.46505926	
          1.89000000	        -23.14923509	         13.61652319	        -10.93647083	          5.74885292	         27.66375612	         -0.56622659	         -8.51621795	          2.39029269	         39.56672237	
          1.90000000	        -23.11762323	         13.59102213	        -10.88962204	          5.73973581	         27.63024757	         -0.55614435	         -8.76848112	          2.40261330	         39.68402289	
          1.91000000	        -23.08784234	         13.56422738	        -10.84397141	          5.72913305	         27.59849881	         -0.54699365	         -9.01876786	          2.41211184	         39.81256578	
          1.92000000	        -23.06062318	         13.53589025	        -10.80060387	          5.71677684	         27.56866279	         -0.53890226	         -9.26277996	          2.41929175	         39.94845156	
